<svg width="20" height="25" viewBox="0 0 20 25" fill="none" xmlns="http://www.w3.org/2000/svg">
<path d="M8.31987 0.130104C5.5782 0.769753 3.26987 3.09922 2.41987 6.09697C2.06154 7.35717 2.0532 7.50038 1.99487 11.7297L1.94487 15.8922L1.0782 17.3147C0.603203 18.0975 0.161536 18.8804 0.103203 19.0522C-0.23013 19.9496 0.278203 21.0953 1.13654 21.3721C1.31154 21.4199 2.41154 21.4676 3.71154 21.4676H5.96987L6.0782 21.8209C6.61987 23.7589 8.08654 25 9.81987 25C11.5532 25 13.0199 23.7589 13.5615 21.8209L13.6699 21.4676H15.9282C17.2282 21.4676 18.3282 21.4199 18.5032 21.3721C19.3615 21.0953 19.8699 19.9496 19.5365 19.0522C19.4782 18.8804 19.0365 18.0975 18.5615 17.3147L17.6949 15.8922L17.6449 11.7297C17.5865 7.50038 17.5782 7.35717 17.2199 6.09697C16.3615 3.04193 14.0615 0.741112 11.2532 0.120558C10.5032 -0.0417423 9.0532 -0.0417423 8.31987 0.130104ZM11.7782 2.12542C13.4365 2.77462 14.7532 4.12074 15.4782 5.91558C16.0032 7.20442 16.0115 7.2808 16.0615 11.8729L16.1115 16.0736L16.3782 16.6941C16.5199 17.0378 16.9532 17.8302 17.3449 18.4603L18.0532 19.606L13.9365 19.6346C11.6699 19.6441 7.96987 19.6441 5.7032 19.6346L1.58654 19.606L2.29487 18.4603C2.68654 17.8302 3.11987 17.0378 3.26154 16.6941L3.5282 16.0736L3.5782 11.8729C3.6282 7.2808 3.63654 7.20442 4.16154 5.91558C4.96154 3.93935 6.39487 2.57413 8.2782 1.98222C9.1782 1.70536 10.8699 1.77219 11.7782 2.12542ZM11.9865 21.5344C11.9865 21.6776 11.6699 22.1932 11.4032 22.4891C10.9949 22.9474 10.6032 23.1288 9.9282 23.167C9.4282 23.1956 9.26154 23.167 8.88654 22.976C8.64487 22.8424 8.33654 22.6133 8.2032 22.4605C7.96154 22.1836 7.6532 21.6681 7.6532 21.5344C7.6532 21.4963 8.6282 21.4676 9.81987 21.4676C11.0115 21.4676 11.9865 21.4963 11.9865 21.5344Z" fill="#EDEDED"/>
</svg>
