<svg width="18" height="18" viewBox="0 0 18 18" fill="none" xmlns="http://www.w3.org/2000/svg">
<path d="M9.85308 0.150539C9.67491 0.356892 9.67491 0.70941 9.86117 0.872772C9.93406 0.941555 10.2904 1.05333 10.6467 1.11352C13.3111 1.55201 15.5543 3.46077 16.5099 6.09176C17.1416 7.83716 17.174 9.88348 16.599 11.6375C15.2385 15.8247 10.7277 18.0258 6.8162 16.418C3.01808 14.8531 1.07448 10.2876 2.49169 6.24653L2.70225 5.62747L2.77513 5.9284C3.00998 6.92577 3.11526 7.17511 3.33392 7.25249C3.64165 7.36427 3.96559 7.13212 3.96559 6.7882C3.96559 6.65063 3.86031 6.04877 3.72264 5.43831C3.59306 4.83645 3.46349 4.25179 3.4392 4.14001C3.37441 3.85628 3.10716 3.60694 2.85612 3.60694C2.61317 3.60694 0.329436 4.54412 0.118879 4.72468C-0.0511861 4.87084 -0.0349894 5.26635 0.143174 5.43831C0.353731 5.63607 0.612877 5.61887 1.20406 5.36093C1.4875 5.24056 1.73045 5.15458 1.74664 5.17177C1.75474 5.18897 1.66566 5.51569 1.53609 5.90261C0.839631 7.99192 0.855827 10.3048 1.58468 12.2651C2.4512 14.6124 4.28142 16.5469 6.47607 17.4153C7.59364 17.871 8.24151 17.9914 9.47246 18C10.6224 18 11.1326 17.9226 12.1854 17.5615C14.9145 16.6329 17.0282 14.2341 17.7894 11.2162C17.9757 10.4595 18 10.193 18 8.98069C18 7.75118 17.9757 7.51043 17.7813 6.74521C17.3359 5.01701 16.5747 3.66712 15.3437 2.42041C14.1776 1.24249 12.7928 0.468664 11.2379 0.133343C10.4038 -0.0472145 10.015 -0.0472145 9.85308 0.150539Z" fill="black"/>
<path d="M9.12417 5.42112L8.90552 5.59308V7.37286V9.15265L9.69915 9.97806C11.165 11.5085 11.3269 11.6117 11.659 11.2592C11.9667 10.9324 11.8776 10.7519 10.8491 9.66853L9.87732 8.65397V7.08913C9.87732 5.937 9.85302 5.4985 9.78014 5.42971C9.55338 5.24056 9.33473 5.24056 9.12417 5.42112Z" fill="black"/>
</svg>
