<svg width="22" height="21" viewBox="0 0 22 21" fill="none" xmlns="http://www.w3.org/2000/svg">
<path d="M9.71619 0.115311C8.1655 0.371958 6.37377 1.1419 5.10429 2.10433C1.55297 4.76705 0.0665616 9.45888 1.41638 13.6855C2.81442 18.0486 6.86388 21 11.4517 21C17.2688 21 21.9771 16.3001 21.9771 10.4935C21.9771 5.33648 18.2169 0.933374 13.1229 0.10729C12.215 -0.037075 10.6 -0.037075 9.71619 0.115311ZM13.0666 1.63113C18.2088 2.5294 21.5352 7.71849 20.2014 12.7873C18.7552 18.2892 12.5846 21.0962 7.48255 18.5779C6.18094 17.9363 4.89539 16.8535 4.08389 15.6986C3.5536 14.9527 2.95904 13.6695 2.718 12.7632C2.44482 11.7206 2.38054 10.0684 2.56534 9.00173C3.20008 5.32044 5.98811 2.44118 9.64388 1.67124C10.5438 1.48677 12.1266 1.46271 13.0666 1.63113Z" fill="#EDEDED"/>
<path d="M8.0369 6.63575C7.65927 6.79615 7.45841 7.2132 7.595 7.57411C7.6432 7.70244 8.28598 8.40822 9.02516 9.14608L10.3589 10.4855L9.72418 11.1511C9.37066 11.5201 9.06534 11.8329 9.04123 11.8569C7.56286 13.3888 7.51465 13.4449 7.51465 13.6936C7.51465 13.8379 7.55482 14.0224 7.60303 14.1186C7.71551 14.3271 8.15742 14.5116 8.4065 14.4475C8.51095 14.4234 9.2421 13.7657 10.0215 12.9878L11.4516 11.5762L12.8336 12.9557C13.5969 13.7176 14.312 14.3673 14.4325 14.4154C14.9226 14.5918 15.4288 14.2389 15.4288 13.6936C15.4288 13.3888 15.3645 13.3166 13.9826 11.9371L12.5363 10.4935L13.9504 9.06588C14.7298 8.28791 15.3886 7.55807 15.4127 7.45381C15.477 7.20518 15.2922 6.76407 15.0833 6.65179C14.9869 6.60366 14.778 6.56356 14.6173 6.56356C14.3361 6.56356 14.2236 6.65179 12.8818 7.98314L11.4516 9.41075L10.1018 8.07137C8.94482 6.90843 8.48684 6.54752 8.25384 6.57158C8.2217 6.57158 8.12528 6.60366 8.0369 6.63575Z" fill="#EDEDED"/>
</svg>
