<svg width="18" height="18" viewBox="0 0 18 18" fill="none" xmlns="http://www.w3.org/2000/svg">
<path d="M7.75167 0.111124C5.76954 0.478035 4.17701 1.50659 3.19961 3.05845C2.68016 3.87648 2.49562 4.52009 2.46144 5.67496C2.42727 6.56517 2.4341 6.67945 2.59814 7.23884C2.82369 8.00876 3.09709 8.508 3.85576 9.53656C5.16123 11.317 5.52348 11.8523 5.4688 11.8944C5.43463 11.9185 5.07238 12.0027 4.65545 12.0749C2.35208 12.4899 0.622849 13.3079 0.171744 14.1981C-0.607436 15.744 1.30634 17.1214 5.06554 17.7289C6.42569 17.9455 7.28006 18.0056 8.99562 17.9996C13.8758 17.9936 17.4573 16.8808 17.9494 15.2087C18.1202 14.6493 17.8537 14.0418 17.2249 13.5305C16.4594 12.9109 15.0377 12.3816 13.3358 12.0749C12.9257 12.0027 12.5566 11.9185 12.5224 11.8944C12.4678 11.8523 12.8232 11.329 14.2038 9.44633C14.8942 8.51401 15.1676 7.99071 15.3931 7.23884C15.5571 6.67945 15.564 6.56517 15.5298 5.67496C15.5025 4.70655 15.4478 4.44189 15.147 3.72611C14.0603 1.15773 10.7727 -0.448267 7.75167 0.111124ZM10.1781 1.16976C11.2238 1.36825 12.4473 2.03591 13.1444 2.78778C14.5456 4.29152 14.7916 6.43886 13.7596 8.08094C13.6297 8.27943 12.8505 9.37415 12.0167 10.517C11.1896 11.6598 10.1781 13.0433 9.78164 13.5967C9.37838 14.156 9.0298 14.6072 8.99562 14.6072C8.96828 14.6072 8.3053 13.723 7.51928 12.6403C6.73326 11.5516 5.70119 10.126 5.21591 9.46438C4.73063 8.80273 4.24535 8.11101 4.14283 7.93056C3.22012 6.31856 3.50718 4.18926 4.83316 2.79379C5.55082 2.03591 6.66492 1.41637 7.70382 1.19382C8.35314 1.04946 9.51508 1.03743 10.1781 1.16976ZM7.41676 14.4568C8.02506 15.2989 8.59236 16.0267 8.67438 16.0808C8.85892 16.1951 9.13232 16.1951 9.31686 16.0808C9.39888 16.0267 9.96618 15.2929 10.5745 14.4508L11.6886 12.9109L12.1123 12.947C13.8347 13.1034 15.8169 13.747 16.473 14.3666C16.9105 14.7816 16.9105 14.9861 16.4525 15.3891C15.687 16.0628 13.8484 16.6041 11.4562 16.8628C10.3216 16.9831 7.66965 16.9831 6.53505 16.8628C4.14283 16.6041 2.30424 16.0628 1.53873 15.3891C1.26533 15.1425 1.20382 15.0583 1.20382 14.8778C1.20382 14.2403 2.78268 13.4703 4.82632 13.1094C5.22275 13.0433 5.6055 12.9771 5.68069 12.9591C5.75587 12.947 5.92674 12.935 6.06344 12.929L6.31633 12.923L7.41676 14.4568Z" fill="black"/>
<path d="M8.17547 3.29303C7.12973 3.59378 6.33688 4.33362 6.09082 5.22985C5.73541 6.49901 6.54193 7.84034 7.92942 8.30349C8.25749 8.41176 8.48305 8.44184 8.99566 8.44184C9.78168 8.44184 10.2806 8.29748 10.8479 7.9065C12.5908 6.70351 12.2628 4.31558 10.2396 3.44341C9.89787 3.29905 9.76117 3.27499 9.09819 3.25694C8.68809 3.25093 8.27116 3.26296 8.17547 3.29303ZM9.71333 4.4058C10.3968 4.68249 10.7727 5.20579 10.7727 5.86743C10.7727 6.84787 9.73384 7.58771 8.64025 7.3832C7.54666 7.17268 6.95202 6.22833 7.32111 5.27797C7.53983 4.71256 8.28483 4.26144 8.99566 4.26144C9.24856 4.26144 9.48778 4.30956 9.71333 4.4058Z" fill="black"/>
</svg>
