<svg width="20" height="21" viewBox="0 0 20 21" fill="none" xmlns="http://www.w3.org/2000/svg">
<path d="M1.11474 0.122511C0.947769 0.182596 0.676443 0.356176 0.516431 0.509729C-0.0401337 1.04383 -0.0123055 0.462997 0.00856572 9.329L0.0294369 17.2002L0.224235 17.5207C0.56513 18.0748 0.746014 18.1549 3.8419 19.143C6.52037 19.9976 6.72213 20.051 7.10476 20.0176C8.10658 19.9308 8.69097 19.2231 8.69097 18.1015V17.5808L10.3468 17.5541C12.1695 17.514 12.3573 17.4806 12.9417 17.0734C13.1157 16.9465 13.3592 16.7062 13.4844 16.5259C13.8809 15.9451 13.9088 15.7582 13.9088 13.4215V11.3052L13.7279 11.0982C13.4844 10.8178 13.0461 10.8044 12.7887 11.0648L12.6217 11.2384L12.5869 13.4282C12.5521 15.5112 12.5452 15.6313 12.406 15.8049C12.0582 16.2589 12.0373 16.2656 10.2841 16.2856L8.69097 16.3056L8.67706 9.6094L8.65619 2.90649L8.48226 2.58603C8.22485 2.10534 7.89787 1.8917 6.93084 1.57125L6.08208 1.28417H8.92056C12.0651 1.27749 12.0791 1.27749 12.3991 1.70477C12.5452 1.90506 12.5521 1.97182 12.5869 4.0815C12.6078 5.27654 12.6495 6.30468 12.6843 6.37144C12.7609 6.52499 13.0878 6.68522 13.3174 6.68522C13.4287 6.68522 13.5818 6.60511 13.707 6.48493L13.9157 6.28465L13.8949 4.00138C13.874 1.80491 13.867 1.6981 13.7209 1.39099C13.5053 0.950359 12.9904 0.442968 12.5243 0.22933L12.1347 0.0423946L6.77778 0.0290432C2.0609 0.0156898 1.38606 0.0290432 1.11474 0.122511ZM4.48195 2.1187C5.93598 2.58603 7.18129 3.00663 7.25086 3.06672C7.36218 3.16018 7.36913 3.61417 7.36913 10.8445C7.36913 17.8946 7.36218 18.5355 7.25086 18.649C7.18825 18.7157 7.06998 18.7692 6.99345 18.7692C6.77083 18.7692 1.5739 17.1001 1.44172 16.9799C1.32345 16.8865 1.31649 16.4325 1.31649 9.20215C1.31649 2.15208 1.32345 1.51116 1.43476 1.39767C1.49738 1.3309 1.61565 1.27749 1.69217 1.27749C1.77566 1.27749 3.02793 1.65804 4.48195 2.1187Z" fill="#EDEDED"/>
<path d="M15.7384 6.69005C15.5158 6.81022 15.3697 7.17074 15.4671 7.39773C15.5019 7.48452 16.0167 8.02529 16.615 8.59277C17.2133 9.16025 17.7003 9.64761 17.7003 9.67432C17.7003 9.7077 16.1836 9.72773 14.3261 9.72773C10.7641 9.72773 10.625 9.74108 10.5067 10.0282C10.4162 10.2685 10.4649 10.589 10.6319 10.7759L10.7989 10.9628L14.2496 10.9962L17.7003 11.0296L16.6219 12.0644C15.961 12.692 15.5158 13.1793 15.474 13.3062C15.3279 13.7201 15.634 14.0673 16.128 14.0673C16.3924 14.0673 16.455 14.0139 18.0968 12.4449C19.036 11.557 19.8431 10.7492 19.8987 10.649C20.1283 10.2284 20.1213 10.2218 18.1664 8.34575C16.1976 6.45639 16.1976 6.45639 15.7384 6.69005Z" fill="#EDEDED"/>
</svg>
