<svg width="18" height="18" viewBox="0 0 18 18" fill="none" xmlns="http://www.w3.org/2000/svg">
<path d="M8.09759 0.0206528C7.48997 0.0988293 6.53342 0.309303 6.06417 0.471668C3.02005 1.53607 0.776069 4.11588 0.144385 7.27299C-0.0481283 8.24117 -0.0481283 9.76861 0.144385 10.7368C0.872326 14.3509 3.65174 17.1352 7.26738 17.8568C8.1758 18.0372 9.70388 18.0493 10.5943 17.8809C14.2821 17.1953 17.1217 14.399 17.8556 10.7368C18.0481 9.76861 18.0481 8.24117 17.8556 7.27299C17.1337 3.67689 14.3302 0.868563 10.7627 0.164978C10.131 0.0386925 8.60896 -0.0394821 8.09759 0.0206528ZM10.5943 1.27147C12.1524 1.62026 13.4699 2.34188 14.5709 3.43635C15.2146 4.0798 15.6417 4.66912 16.0388 5.4569C17.3503 8.06076 17.1156 11.1818 15.4311 13.5752C15.0221 14.1525 14.1497 15.0244 13.5722 15.4334C11.5267 16.8706 8.87968 17.2735 6.55749 16.4918C5.31217 16.0768 4.33757 15.4815 3.42914 14.5734C2.78543 13.93 2.35829 13.3407 1.96123 12.5529C0.649733 9.94902 0.884358 6.82799 2.56885 4.4346C2.97794 3.85729 3.85027 2.98533 4.42781 2.57641C5.34225 1.93296 6.5996 1.40978 7.70053 1.21735C8.33222 1.1091 9.99866 1.13917 10.5943 1.27147Z" fill="black"/>
<path d="M8.78347 3.41229C8.54884 3.50851 8.4586 3.71297 8.4586 4.13993V4.54284L8.16983 4.63906C7.53213 4.84953 6.98467 5.36068 6.67184 6.0342C6.52144 6.35292 6.50339 6.45515 6.50339 7.02042C6.50339 7.60373 6.51542 7.68191 6.68988 8.04874C6.99069 8.68617 7.5201 9.1853 8.10967 9.40178C8.25406 9.4559 8.59697 9.52205 8.87371 9.55212C9.48133 9.61827 9.83627 9.77462 10.0709 10.0753C10.3176 10.4 10.3837 10.5925 10.3837 10.9773C10.3777 11.7771 9.78213 12.3725 8.98801 12.3725C8.22999 12.3665 7.72464 11.8673 7.58627 10.9833C7.5201 10.5323 7.17718 10.3158 6.79216 10.4782C6.51542 10.5925 6.44924 10.7608 6.49136 11.254C6.56956 12.1921 7.26141 13.058 8.18186 13.3707L8.4586 13.4669V13.8759C8.4586 14.2246 8.48267 14.3148 8.60299 14.4592C8.80753 14.6937 9.19256 14.6937 9.3971 14.4592C9.51742 14.3148 9.54149 14.2246 9.54149 13.8759V13.4669L9.81823 13.3707C10.474 13.1482 10.9673 12.6972 11.3042 12.0117C11.4847 11.6508 11.4967 11.5787 11.4967 10.9894C11.4967 10.406 11.4847 10.3279 11.3102 9.96104C10.9914 9.28753 10.468 8.80644 9.80018 8.57793C9.61368 8.51779 9.36101 8.46367 9.23467 8.46367C8.26609 8.46367 7.62237 7.8984 7.62237 7.05049C7.61636 6.24467 8.21194 5.6373 9.00004 5.6373C9.37304 5.6373 9.68587 5.76359 9.95058 6.01616C10.2213 6.27474 10.3176 6.4792 10.3898 6.91819C10.4619 7.33914 10.5161 7.42934 10.7928 7.5436C10.9553 7.60975 11.0154 7.60975 11.1899 7.53758C11.4847 7.41731 11.5508 7.25495 11.5087 6.75582C11.4305 5.81771 10.7387 4.95176 9.81823 4.63906L9.54149 4.54284V4.13392C9.54149 3.79115 9.51742 3.69493 9.40914 3.56864C9.25873 3.39425 8.97598 3.3281 8.78347 3.41229Z" fill="black"/>
</svg>
