<svg width="20" height="23" viewBox="0 0 20 23" fill="none" xmlns="http://www.w3.org/2000/svg">
<path d="M7.56352 4.54814C5.07109 5.02272 2.97261 6.75103 2.19988 8.97517C1.87412 9.91016 1.86655 10.0164 1.81352 13.1543L1.76806 16.2426L0.980185 17.298C0.548367 17.8788 0.146851 18.4596 0.0938211 18.5871C-0.209209 19.253 0.252912 20.103 1.03322 20.3084C1.19231 20.3438 2.19231 20.3792 3.37412 20.3792H5.42715L5.52564 20.6413C6.01806 22.0792 7.3514 23 8.92715 23C10.5029 23 11.8362 22.0792 12.3287 20.6413L12.4272 20.3792H14.4802C15.662 20.3792 16.662 20.3438 16.8211 20.3084C17.6014 20.103 18.0635 19.253 17.7605 18.5871C17.7075 18.4596 17.3059 17.8788 16.8741 17.298L16.0862 16.2426L16.0408 13.1543C15.9878 10.0164 15.9802 9.91016 15.6544 8.97517C14.8741 6.70853 12.7832 5.00147 10.2302 4.54106C9.54837 4.42064 8.23019 4.42064 7.56352 4.54814ZM10.7075 6.02854C12.215 6.5102 13.412 7.50894 14.0711 8.84059C14.5484 9.79683 14.5559 9.85349 14.6014 13.2605L14.6469 16.3772L14.8893 16.8376C15.0181 17.0926 15.412 17.6805 15.7681 18.148L16.412 18.998L12.6696 19.0192C10.609 19.0263 7.24534 19.0263 5.18473 19.0192L1.44231 18.998L2.08625 18.148C2.44231 17.6805 2.83625 17.0926 2.96503 16.8376L3.20746 16.3772L3.25291 13.2605C3.29837 9.85349 3.30594 9.79683 3.78322 8.84059C4.51049 7.37436 5.81352 6.36145 7.52564 5.92229C8.34382 5.71688 9.8817 5.76646 10.7075 6.02854ZM10.8969 20.4288C10.8969 20.535 10.609 20.9175 10.3665 21.1371C9.99534 21.4771 9.63928 21.6117 9.02564 21.64C8.57109 21.6613 8.41958 21.64 8.07867 21.4984C7.85897 21.3992 7.57867 21.2292 7.45746 21.1159C7.23776 20.9104 6.95746 20.5279 6.95746 20.4288C6.95746 20.4004 7.84382 20.3792 8.92715 20.3792C10.0105 20.3792 10.8969 20.4004 10.8969 20.4288Z" fill="#EDEDED"/>
<path d="M19.5001 4.45161C19.5001 6.54386 17.3816 8.40323 14.5455 8.40323C11.7095 8.40323 9.591 6.54386 9.591 4.45161C9.591 2.35937 11.7095 0.5 14.5455 0.5C17.3816 0.5 19.5001 2.35937 19.5001 4.45161Z" fill="#FD5959" stroke="#2C3E50"/>
</svg>
