<svg width="20" height="21" viewBox="0 0 20 21" fill="none" xmlns="http://www.w3.org/2000/svg">
<path d="M6.47662 0.151663C3.68566 0.645468 1.41551 2.57397 0.440677 5.28989C0.206985 5.92383 0 7.15166 0 7.84565C0 9.40714 0.614277 11.2689 1.53569 12.4967C2.27016 13.4844 3.24499 14.2851 4.37339 14.839C5.97585 15.6197 7.75859 15.8466 9.48124 15.4929C10.2424 15.3328 11.4776 14.8323 12.0519 14.4386C12.3123 14.2584 12.3323 14.2584 12.3857 14.5187C12.4525 14.8323 17.2465 19.6502 17.7272 19.8771C18.5084 20.2508 19.4566 19.8905 19.8639 19.0697C20.0508 18.696 20.0441 18.0287 19.8505 17.6683C19.7704 17.5149 18.6353 16.3337 17.2131 14.9257C15.2635 12.9839 14.6759 12.4367 14.509 12.3967C14.2486 12.3433 14.2486 12.3233 14.4288 12.063C14.8228 11.4891 15.3235 10.2546 15.4838 9.49389C16.0981 6.50438 14.9163 3.36806 12.4859 1.553C11.2306 0.612103 9.36773 0.0115299 7.77862 0.0248756C7.45145 0.0248756 6.86388 0.0849342 6.47662 0.151663ZM9.40111 2.21363C11.3708 2.78083 12.8531 4.26224 13.4607 6.27082C13.6209 6.78465 13.641 6.97816 13.6476 7.82564C13.6476 8.63307 13.6276 8.87997 13.5007 9.31372C12.8998 11.4291 11.4175 12.9105 9.30096 13.511C8.86696 13.6378 8.61991 13.6579 7.81201 13.6579C6.96404 13.6512 6.7704 13.6312 6.25628 13.471C4.24653 12.8638 2.75757 11.3757 2.20339 9.41381C2.02311 8.77988 1.96302 7.67216 2.06317 6.95814C2.41705 4.56253 4.31329 2.58064 6.71031 2.11353C7.38468 1.98674 8.76681 2.03345 9.40111 2.21363Z" fill="#EDEDED"/>
</svg>
