<svg width="25" height="25" viewBox="0 0 25 25" fill="none" xmlns="http://www.w3.org/2000/svg">
<path d="M12.1676 0.0527C12.0643 0.101982 11.9139 0.220261 11.8294 0.318829C11.7448 0.427252 10.918 2.11275 9.99719 4.08409C8.70996 6.84396 8.28715 7.67193 8.13681 7.7015C8.02406 7.72121 6.29523 7.9972 4.28451 8.2929C2.2738 8.59846 0.54496 8.8843 0.460397 8.94344C0.187917 9.09129 0 9.44613 0 9.81083C0 10.1065 0.0939586 10.2544 0.732877 10.9049C1.1275 11.309 2.41474 12.6298 3.58922 13.8422L5.73147 16.0304L5.07376 20.0322C4.70732 22.2401 4.41605 24.1228 4.41605 24.2312C4.41605 24.5466 4.92343 25 5.26168 25C5.46839 25 6.65227 24.3987 9.02942 23.0878L12.4965 21.1657L15.973 23.0878C18.3313 24.3889 19.534 25 19.7313 25C20.0696 25 20.5769 24.5367 20.5769 24.2312C20.5769 24.1228 20.2857 22.2401 19.9192 20.0322L19.2615 16.0304L21.3098 13.9408C25.3312 9.81083 24.993 10.1952 24.993 9.80097C24.993 9.42642 24.7205 8.98287 24.4292 8.8843C24.3353 8.85473 22.5595 8.56889 20.483 8.24361C18.4065 7.9282 16.6964 7.65221 16.6683 7.6325C16.6495 7.60293 15.879 5.97657 14.9488 3.99538C14.028 2.02404 13.1824 0.328686 13.0884 0.239977C12.8629 0.0231285 12.4213 -0.0655804 12.1676 0.0527Z" fill="black"/>
</svg>
