<svg width="20" height="21" viewBox="0 0 20 21" fill="none" xmlns="http://www.w3.org/2000/svg">
<path d="M9.77366 0.0547504C9.45338 0.131336 9.23986 0.312357 9.0597 0.667439C8.96628 0.848459 8.41914 2.16434 7.83196 3.59163C7.03125 5.5759 6.74434 6.20948 6.64425 6.24429C6.56418 6.27214 5.22968 6.41835 3.66831 6.55759C2.10694 6.7038 0.739078 6.86394 0.625645 6.91267C0.3454 7.03104 0.0584817 7.43485 0.0184466 7.76904C-0.054951 8.36085 -0.0215885 8.40262 2.32046 10.547C3.52151 11.6401 4.55575 12.587 4.61581 12.6497C4.72257 12.7541 4.6892 12.949 4.06199 15.8245C3.62827 17.8088 3.40808 18.9645 3.4281 19.0968C3.53486 19.6608 4.08201 20.0924 4.60246 20.0158C4.76927 19.9949 5.70343 19.4519 7.43161 18.3727L10.0139 16.7644L12.5895 18.3727C14.3243 19.4588 15.2451 19.9949 15.4119 20.0158C15.9324 20.0924 16.4795 19.6608 16.5863 19.0968C16.6063 18.9645 16.3861 17.8018 15.9524 15.8245C15.3252 12.956 15.2918 12.7541 15.3986 12.6497C15.4586 12.587 16.4862 11.6471 17.6739 10.561C19.2419 9.12671 19.8625 8.52098 19.9292 8.34692C20.1361 7.83171 19.8692 7.11458 19.3887 6.91267C19.2753 6.86394 17.9074 6.7038 16.3461 6.55759C14.7847 6.41835 13.4502 6.27214 13.3701 6.24429C13.2701 6.20948 12.9831 5.5759 12.1824 3.59163C11.5953 2.16434 11.0481 0.848459 10.9547 0.660475C10.7078 0.173111 10.2541 -0.0636101 9.77366 0.0547504ZM11.1082 4.31571C11.6887 5.743 12.2291 7.01015 12.3159 7.13547C12.4026 7.26079 12.5961 7.40004 12.7563 7.4627C12.9364 7.53232 14.0374 7.66461 15.7456 7.82474C17.2335 7.96399 18.4546 8.08235 18.4613 8.08931C18.4679 8.09628 17.5338 8.95961 16.3794 10.0109C14.2709 11.9395 14.0107 12.225 14.0107 12.6427C14.0107 12.7332 14.2843 14.0561 14.6179 15.5878C14.9515 17.1195 15.2051 18.3936 15.1851 18.4145C15.165 18.4354 14.8581 18.2683 14.4978 18.0455C14.1375 17.8227 13.0499 17.1473 12.0823 16.5416C10.4676 15.5321 10.3008 15.4416 10.0072 15.4416C9.7136 15.4416 9.51343 15.553 7.24478 16.9663C5.87691 17.8227 4.80264 18.4563 4.80264 18.4006C4.80264 18.3518 5.07621 17.0708 5.40316 15.553C5.73679 14.0352 6.00369 12.7262 6.00369 12.6427C6.00369 12.225 5.74346 11.9325 3.63495 10.0109C2.4806 8.95961 1.54645 8.09628 1.55312 8.08931C1.5598 8.08235 2.78087 7.96399 4.26884 7.82474C5.977 7.66461 7.07796 7.53232 7.25812 7.4627C7.41826 7.40004 7.61176 7.26079 7.69851 7.13547C7.78525 7.01015 8.32572 5.743 8.90623 4.31571C9.48674 2.89539 9.9805 1.72572 10.0072 1.72572C10.0339 1.72572 10.5276 2.89539 11.1082 4.31571Z" fill="#EDEDED"/>
</svg>
