<svg width="20" height="21" viewBox="0 0 20 21" fill="none" xmlns="http://www.w3.org/2000/svg">
<path d="M8.60913 0.108514C8.30494 0.161908 7.70457 0.348787 7.28831 0.515645C6.6399 0.775942 6.42377 0.909428 5.80738 1.43002C4.5666 2.46453 4.0863 3.4323 4.0863 4.86727C4.09431 6.7294 5.27905 8.29785 7.35235 9.17218C8.75322 9.7662 10.9306 9.7662 12.3475 9.17886C13.3241 8.76505 14.3567 7.95079 14.9171 7.1432C15.0291 6.97635 15.2213 6.60259 15.3413 6.30892C15.5415 5.8217 15.5655 5.68821 15.5655 4.84058C15.5655 4.01964 15.5335 3.84611 15.3574 3.39226C15.0372 2.58467 14.6209 2.03071 13.9004 1.4367C12.7477 0.488948 11.619 0.0818167 10.05 0.0284224C9.44165 0.0150738 8.99337 0.0350971 8.60913 0.108514ZM11.1467 1.33658C12.4355 1.6703 13.6123 2.64474 14.0205 3.73265C14.2527 4.34001 14.2527 5.34115 14.0205 5.94183C13.5322 7.21662 12.0993 8.23111 10.4983 8.42467C9.06542 8.5982 7.78462 8.24446 6.77599 7.39015C5.59925 6.40236 5.207 5.22101 5.60725 3.91285C5.80738 3.2521 6.12758 2.77823 6.71995 2.27765C7.26429 1.8238 7.7606 1.56351 8.48906 1.3566C9.1935 1.15638 10.4103 1.14303 11.1467 1.33658Z" fill="#EDEDED"/>
<path d="M4.19022 9.77964C2.32506 10.12 1.02024 11.3948 0.403856 13.4505C0.0436308 14.6986 -0.108464 16.5674 0.0836559 17.4284C0.219741 18.009 0.587971 18.5897 1.1083 19.0168C1.65264 19.4707 2.18097 19.7176 3.0295 19.8978C3.59785 20.018 3.96608 20.0247 9.96183 20.0247C15.1411 20.0247 16.3899 20.0046 16.8301 19.9245C18.4952 19.6309 19.6639 18.6164 19.9361 17.2215C20.0962 16.4339 19.9441 14.7653 19.6079 13.564C19.1276 11.8353 18.151 10.6273 16.7741 10.08C16.0857 9.79966 15.1091 9.6328 14.6047 9.69955C14.4446 9.71957 13.9083 9.95317 13.404 10.2201C11.3387 11.3014 9.85777 11.4682 7.96058 10.8408C7.65639 10.7407 7.11205 10.5005 6.74382 10.3069C5.49504 9.6328 5.2709 9.58609 4.19022 9.77964ZM6.05539 11.3147C7.58435 12.1156 8.71305 12.3893 10.282 12.3292C11.6829 12.2825 12.6995 11.9888 14.0684 11.2413C14.7568 10.8742 14.7728 10.8675 15.2291 10.9009C16.4779 10.9944 17.4305 11.7619 18.0149 13.1568C18.3991 14.0712 18.5272 14.8387 18.5352 16.1536C18.5352 17.3016 18.5272 17.3282 18.3111 17.702C17.9028 18.4028 17.2704 18.7232 16.0937 18.83C15.6454 18.87 13.0678 18.89 9.4255 18.8767L3.48578 18.8567L3.01349 18.6965C2.41311 18.4962 1.83675 18.0557 1.5966 17.6019C1.42049 17.2882 1.40448 17.1681 1.41249 16.2537C1.42049 13.8443 2.229 11.9421 3.53381 11.248C3.93406 11.0344 4.4704 10.8876 4.87065 10.8809C5.16684 10.8809 5.35095 10.9476 6.05539 11.3147Z" fill="#EDEDED"/>
</svg>
